custom-analysis
version=1
nRows=16
nColumns=42
inDegrees=no

This file contains tibia displacement and acting force.

Units are S.I. units (seconds, meters, Newtons, ...)
Angles are in degrees.

endheader
time	APT	SIT	knee_angle	aACL_R_force	pACL_R_force	aPCL_R_force	pPCL_R_force	aMCL_R_force	mMCL_R_force	pMCL_R_force	aLCL_R_force	mLCL_R_force	pLCL_R_force	aACL_R_length	pACL_R_length	aPCL_R_length	pPCL_R_length	aMCL_R_length	mMCL_R_length	pMCL_R_length	aLCL_R_length	mLCL_R_length	pLCL_R_length	aACL_R_strain	pACL_R_strain	aPCL_R_strain	pPCL_R_strain	aMCL_R_strain	mMCL_R_strain	pMCL_R_strain	aLCL_R_strain	mLCL_R_strain	pLCL_R_strain	femur_lat_meniscii_force_r	femur_lat_meniscii_torque_r	femur_med_meniscii_force_r	femur_med_meniscii_torque_r	femur_lat_tibia_force_r	femur_lat_tibia_torque_r	femur_med_tibia_force_r	femur_med_tibia_torque_r
      0.23469315	      0.00119779	     -0.00113128	     60.00037120	      2.10283537	      0.00000000	    815.45353963	    402.46260225	     28.46242994	      2.37382763	      0.00000000	      0.00000000	      0.00000000	      0.00000000	      0.03125794	      0.02450120	      0.03633104	      0.03309054	      0.06173840	      0.06062924	      0.05717334	      0.05375974	      0.04892981	      0.04441114	      0.00814183	     -0.03381479	      0.16837718	      0.09979924	      0.06395988	      0.01397709	     -0.05853419	     -0.03961364	     -0.13119620	     -0.15153140	    395.36476692	    158.71638272	    928.74448818	    377.07464319	      0.00000000	      0.00000000	      0.00000000	      0.00000000
      0.23523935	      0.00120016	     -0.00113215	     60.00037120	      2.24406097	      0.00000000	    815.87389594	    403.75301248	     29.30038906	      3.23752954	      0.00000000	      0.00000000	      0.00000000	      0.00000000	      0.03126025	      0.02450306	      0.03633041	      0.03308990	      0.06173960	      0.06063029	      0.05717427	      0.05375974	      0.04892976	      0.04441089	      0.00821618	     -0.03374148	      0.16835693	      0.09977805	      0.06398063	      0.01399462	     -0.05851883	     -0.03961371	     -0.13119717	     -0.15153608	    384.66412007	    154.42048912	    904.43530956	    367.21708412	      0.00000000	      0.00000000	      0.00000000	      0.00000000
      0.23578554	      0.00120236	     -0.00113330	     60.00037120	      2.12790699	      0.00000000	    815.60506397	    403.13528608	     28.92479668	      2.83458146	      0.00000000	      0.00000000	      0.00000000	      0.00000000	      0.03126260	      0.02450500	      0.03633015	      0.03308963	      0.06174108	      0.06063162	      0.05717550	      0.05376007	      0.04893004	      0.04441100	      0.00829209	     -0.03366499	      0.16834858	      0.09976916	      0.06400604	      0.01401692	     -0.05849861	     -0.03960779	     -0.13119213	     -0.15153411	    389.33415609	    156.30123850	    914.82004842	    371.43333696	      0.00000000	      0.00000000	      0.00000000	      0.00000000
      0.23649800	      0.00120527	     -0.00113456	     60.00037120	      2.17078079	      0.00000000	    815.73907310	    403.66442551	     29.30350801	      3.21305750	      0.00000000	      0.00000000	      0.00000000	      0.00000000	      0.03126550	      0.02450735	      0.03632957	      0.03308905	      0.06174278	      0.06063313	      0.05717687	      0.05376024	      0.04893015	      0.04441087	      0.00838574	     -0.03357240	      0.16833004	      0.09974975	      0.06403535	      0.01404221	     -0.05847599	     -0.03960475	     -0.13119022	     -0.15153652	    384.66546569	    154.43772071	    904.23866146	    367.13529154	      0.00000000	      0.00000000	      0.00000000	      0.00000000
      0.23721046	      0.00120801	     -0.00113611	     60.00037120	      1.95287579	      0.00000000	    815.17014510	    402.24654543	     28.44834590	      2.30294668	      0.00000000	      0.00000000	      0.00000000	      0.00000000	      0.03126844	      0.02450976	      0.03632938	      0.03308885	      0.06174476	      0.06063494	      0.05717856	      0.05376075	      0.04893060	      0.04441110	      0.00848053	     -0.03347733	      0.16832371	      0.09974297	      0.06406956	      0.01407250	     -0.05844824	     -0.03959564	     -0.13118222	     -0.15153220	    395.68254234	    158.88965584	    928.85852757	    377.12739660	      0.00000000	      0.00000000	      0.00000000	      0.00000000
      0.23774634	      0.00121020	     -0.00113687	     60.00037120	      2.10369622	      0.00000000	    815.59606754	    403.53875910	     29.28383697	      3.16505605	      0.00000000	      0.00000000	      0.00000000	      0.00000000	      0.03127045	      0.02451134	      0.03632879	      0.03308826	      0.06174588	      0.06063592	      0.05717943	      0.05376068	      0.04893049	      0.04441081	      0.00854540	     -0.03341498	      0.16830485	      0.09972340	      0.06408886	      0.01408883	     -0.05843383	     -0.03959679	     -0.13118418	     -0.15153760	    385.03295946	    154.61353703	    904.58377483	    367.28341844	      0.00000000	      0.00000000	      0.00000000	      0.00000000
      0.23828222	      0.00121224	     -0.00113791	     60.00037120	      2.00222484	      0.00000000	    815.36229718	    403.00380253	     28.97868264	      2.83308470	      0.00000000	      0.00000000	      0.00000000	      0.00000000	      0.03127252	      0.02451300	      0.03632856	      0.03308802	      0.06174727	      0.06063718	      0.05718059	      0.05376094	      0.04893071	      0.04441087	      0.00861198	     -0.03334935	      0.16829739	      0.09971560	      0.06411270	      0.01410981	     -0.05841468	     -0.03959214	     -0.13118033	     -0.15153659	    389.14224522	    156.24379577	    913.57868070	    370.92334758	      0.00000000	      0.00000000	      0.00000000	      0.00000000
      0.23901458	      0.00121512	     -0.00113912	     60.00037120	      2.08293347	      0.00000000	    815.48129154	    403.48261470	     29.36953446	      3.21820345	      0.00000000	      0.00000000	      0.00000000	      0.00000000	      0.03127522	      0.02451513	      0.03632802	      0.03308748	      0.06174899	      0.06063871	      0.05718200	      0.05376107	      0.04893077	      0.04441070	      0.00869910	     -0.03326564	      0.16827999	      0.09969756	      0.06414234	      0.01413550	     -0.05839148	     -0.03958990	     -0.13117919	     -0.15153968	    384.88343460	    154.52491184	    903.45821601	    366.82365993	      0.00000000	      0.00000000	      0.00000000	      0.00000000
      0.23967262	      0.00121761	     -0.00114045	     60.00037120	      1.95282081	      0.00000000	    815.04300015	    402.40677936	     28.75216509	      2.55482959	      0.00000000	      0.00000000	      0.00000000	      0.00000000	      0.03127774	      0.02451714	      0.03632781	      0.03308727	      0.06175077	      0.06064034	      0.05718352	      0.05376145	      0.04893110	      0.04441083	      0.00878024	     -0.03318614	      0.16827343	      0.09969073	      0.06417307	      0.01416270	     -0.05836648	     -0.03958316	     -0.13117342	     -0.15153728	    393.16794047	    157.86253569	    921.97002491	    374.33321954	      0.00000000	      0.00000000	      0.00000000	      0.00000000
      0.24033065	      0.00122029	     -0.00114138	     60.00037120	      2.17033391	      0.00000000	    815.52677254	    403.87952687	     29.74811579	      3.57652332	      0.00000000	      0.00000000	      0.00000000	      0.00000000	      0.03128010	      0.02451897	      0.03632713	      0.03308659	      0.06175217	      0.06064157	      0.05718463	      0.05376135	      0.04893094	      0.04441047	      0.00885646	     -0.03311415	      0.16825146	      0.09966805	      0.06419727	      0.01418330	     -0.05834814	     -0.03958488	     -0.13117612	     -0.15154413	    380.83144977	    152.87760657	    894.08091229	    363.02647298	      0.00000000	      0.00000000	      0.00000000	      0.00000000
      0.24088317	      0.00122233	     -0.00114258	     60.00037120	      1.99249414	      0.00000000	    814.97991483	    402.48116961	     28.90878817	      2.68519586	      0.00000000	      0.00000000	      0.00000000	      0.00000000	      0.03128224	      0.02452070	      0.03632705	      0.03308652	      0.06175376	      0.06064302	      0.05718600	      0.05376174	      0.04893130	      0.04441066	      0.00892555	     -0.03304581	      0.16824904	      0.09966556	      0.06422450	      0.01420760	     -0.05832568	     -0.03957783	     -0.13116989	     -0.15154058	    391.83366493	    157.32146747	    918.59714938	    372.97733548	      0.00000000	      0.00000000	      0.00000000	      0.00000000
      0.24143568	      0.00122450	     -0.00114345	     60.00037120	      2.06637896	      0.00000000	    815.15966736	    403.09033699	     29.31881783	      3.10150774	      0.00000000	      0.00000000	      0.00000000	      0.00000000	      0.03128424	      0.02452227	      0.03632661	      0.03308607	      0.06175502	      0.06064415	      0.05718703	      0.05376176	      0.04893127	      0.04441046	      0.00899013	     -0.03298398	      0.16823460	      0.09965071	      0.06424637	      0.01422652	     -0.05830864	     -0.03957748	     -0.13117036	     -0.15154431	    386.68686033	    155.26359717	    906.67549902	    368.14511570	      0.00000000	      0.00000000	      0.00000000	      0.00000000
      0.24213051	      0.00122709	     -0.00114475	     60.00037120	      1.98845780	      0.00000000	    814.86404269	    402.41366321	     28.94516780	      2.69325862	      0.00000000	      0.00000000	      0.00000000	      0.00000000	      0.03128682	      0.02452433	      0.03632631	      0.03308578	      0.06175682	      0.06064579	      0.05718856	      0.05376204	      0.04893149	      0.04441047	      0.00907328	     -0.03290275	      0.16822522	      0.09964110	      0.06427738	      0.01425389	     -0.05828357	     -0.03957262	     -0.13116651	     -0.15154409	    391.69767998	    157.23288590	    917.73637998	    372.63595835	      0.00000000	      0.00000000	      0.00000000	      0.00000000
      0.24282533	      0.00122980	     -0.00114575	     60.00037120	      2.16225136	      0.00000000	    815.24034225	    403.59665548	     29.76715489	      3.53109876	      0.00000000	      0.00000000	      0.00000000	      0.00000000	      0.03128927	      0.02452624	      0.03632566	      0.03308514	      0.06175834	      0.06064713	      0.05718977	      0.05376195	      0.04893134	      0.04441012	      0.00915241	     -0.03282756	      0.16820430	      0.09961965	      0.06430345	      0.01427627	     -0.05826353	     -0.03957415	     -0.13116905	     -0.15155085	    381.71740364	    153.23035893	    894.67703322	    363.27927732	      0.00000000	      0.00000000	      0.00000000	      0.00000000
      0.24338220	      0.00123183	     -0.00114691	     60.00037120	      1.99333247	      0.00000000	    814.72415859	    402.28390727	     28.98929527	      2.70265169	      0.00000000	      0.00000000	      0.00000000	      0.00000000	      0.03129137	      0.02452792	      0.03632557	      0.03308505	      0.06175990	      0.06064857	      0.05719112	      0.05376229	      0.04893164	      0.04441026	      0.00921996	     -0.03276107	      0.16820128	      0.09961663	      0.06433039	      0.01430031	     -0.05824131	     -0.03956803	     -0.13116374	     -0.15154824	    391.89754162	    157.31054577	    917.67942750	    372.61638240	      0.00000000	      0.00000000	      0.00000000	      0.00000000
      0.24393907	      0.00123399	     -0.00114777	     60.00037120	      2.07073522	      0.00000000	    814.89600012	    402.87287741	     29.39805311	      3.11591025	      0.00000000	      0.00000000	      0.00000000	      0.00000000	      0.03129333	      0.02452945	      0.03632512	      0.03308460	      0.06176117	      0.06064970	      0.05719216	      0.05376228	      0.04893158	      0.04441003	      0.00928330	     -0.03270086	      0.16818679	      0.09960181	      0.06435233	      0.01431931	     -0.05822415	     -0.03956823	     -0.13116476	     -0.15155252	    386.85479883	    155.28747325	    906.13413233	    367.93738078	      0.00000000	      0.00000000	      0.00000000	      0.00000000
